<?xml version="1.0" standalone="no"?>
<!DOCTYPE svg PUBLIC "-//W3C//DTD SVG 20010904//EN"
 "http://www.w3.org/TR/2001/REC-SVG-20010904/DTD/svg10.dtd">
<svg version="1.0" xmlns="http://www.w3.org/2000/svg"
 width="161.000000pt" height="160.000000pt" viewBox="0 0 161.000000 160.000000"
 preserveAspectRatio="xMidYMid meet">

<g transform="translate(0.000000,160.000000) scale(0.100000,-0.100000)"
fill="#000000" stroke="none">
<path d="M561 1581 c-6 -11 -11 -27 -11 -36 0 -9 -11 -35 -24 -58 -32 -56 -50
-152 -43 -230 4 -34 9 -91 13 -127 7 -73 -3 -73 -31 2 -9 25 -29 61 -44 79
-36 43 -75 36 -98 -18 -25 -60 -10 -130 54 -251 l55 -105 7 -121 c9 -132 15
-156 56 -205 44 -52 98 -74 170 -69 56 3 71 10 139 55 72 49 78 51 128 47 76
-7 132 25 176 96 23 39 49 65 93 93 93 59 124 133 80 188 -24 30 -80 30 -139
0 -38 -19 -43 -20 -49 -5 -3 9 10 48 33 92 37 71 39 80 39 166 0 79 -3 97 -25
135 -30 53 -49 66 -83 57 -28 -7 -57 -53 -71 -111 -11 -46 -47 -125 -57 -125
-16 0 -22 52 -16 144 7 117 3 137 -44 189 -21 24 -41 56 -44 70 -4 14 -13 31
-20 37 -11 9 -15 4 -20 -27 -3 -21 -10 -45 -16 -53 -37 -58 -61 -123 -55 -155
7 -37 -1 -85 -15 -85 -4 0 -11 17 -14 38 -12 87 -36 162 -64 208 -17 26 -31
58 -31 70 0 31 -17 39 -29 15z"/>
<path d="M211 318 c-10 -24 -21 -51 -25 -61 -4 -13 -14 -17 -33 -15 -30 3 -33
15 -19 76 l8 32 -42 0 c-48 0 -100 -24 -100 -46 0 -12 5 -14 17 -9 29 12 63
18 63 11 0 -23 -32 -75 -49 -81 -24 -7 -28 -25 -6 -25 12 0 15 -11 13 -52 -3
-48 -1 -53 19 -56 17 -3 24 3 28 25 18 85 19 88 53 91 l32 3 0 -55 c0 -47 3
-56 21 -61 11 -4 22 -5 24 -3 4 4 35 219 35 246 0 36 -20 25 -39 -20z"/>
<path d="M565 316 c-13 -33 -23 -46 -37 -46 -38 0 -80 -31 -99 -74 -20 -45
-58 -71 -90 -61 -29 10 -22 28 19 50 27 15 37 27 37 44 0 34 -26 47 -61 32
-37 -15 -61 -48 -69 -93 -13 -66 54 -100 126 -63 27 14 31 14 45 0 19 -19 54
-19 80 -1 16 13 21 12 36 -1 15 -13 20 -13 49 1 30 15 34 15 50 0 14 -12 28
-15 56 -9 50 9 34 -7 -20 -20 -70 -18 -59 -75 14 -75 33 0 41 4 55 33 9 17 25
38 35 45 10 7 25 20 34 28 15 15 17 15 34 0 22 -20 67 -20 105 -1 26 14 30 14
41 -2 21 -28 45 -9 45 35 0 25 8 49 21 66 33 41 42 33 34 -32 -9 -75 6 -92 59
-67 32 15 37 15 58 1 28 -20 68 -21 94 -1 25 19 78 19 95 -1 10 -12 23 -14 53
-9 51 8 38 -7 -17 -20 -70 -18 -59 -75 14 -75 33 0 41 5 54 30 9 17 34 47 56
67 21 19 39 45 39 56 0 19 -2 19 -30 -8 -34 -32 -35 -30 -16 40 19 70 9 85
-53 81 -64 -5 -86 -18 -107 -66 -19 -44 -44 -55 -37 -17 3 14 -2 31 -11 40 -9
8 -16 20 -16 25 0 15 -53 24 -81 14 -30 -12 -54 -39 -64 -72 -20 -67 -45 -65
-38 4 5 49 3 55 -17 66 -17 9 -29 9 -47 1 -34 -16 -35 -14 -18 20 18 33 17 70
-2 76 -16 6 -51 -64 -66 -135 -12 -50 -18 -60 -50 -77 -36 -19 -37 -19 -54 -1
-10 10 -13 20 -8 22 34 14 60 32 72 50 12 19 12 24 -3 39 -11 11 -25 14 -43
10 -31 -7 -81 -58 -81 -83 0 -10 -11 -29 -25 -42 -28 -27 -29 -24 -11 45 19
69 9 84 -51 81 -64 -3 -82 -15 -113 -73 -14 -26 -34 -49 -44 -51 -17 -4 -18 1
-12 53 3 31 13 70 22 87 18 36 15 72 -7 76 -12 2 -22 -11 -34 -42z m-25 -110
c0 -41 -30 -82 -53 -73 -25 9 -21 41 9 76 33 40 44 39 44 -3z m215 -3 c-8 -46
-37 -78 -60 -69 -23 9 -12 54 21 84 37 32 47 28 39 -15z m550 17 c-13 -14 -16
-29 -12 -55 5 -33 4 -36 -16 -33 -49 7 -22 108 30 108 14 0 14 -2 -2 -20z
m210 -17 c-8 -46 -37 -78 -60 -69 -23 9 -12 54 21 84 37 32 47 28 39 -15z
m-1165 12 c-7 -8 -16 -15 -21 -15 -5 0 -6 7 -3 15 4 8 13 15 21 15 13 0 13 -3
3 -15z m580 6 c0 -5 -7 -11 -15 -15 -9 -3 -15 0 -15 9 0 8 7 15 15 15 8 0 15
-4 15 -9z m407 -43 c-3 -8 -6 -5 -6 6 -1 11 2 17 5 13 3 -3 4 -12 1 -19z
m-627 -137 c0 -14 -18 -23 -31 -15 -8 4 -7 9 2 15 18 11 29 11 29 0z m760 0
c0 -14 -18 -23 -31 -15 -8 4 -7 9 2 15 18 11 29 11 29 0z"/>
</g>
</svg>
